<svg xmlns="http://www.w3.org/2000/svg" width="24" height="20" viewBox="0 0 24 20">
    <g fill="none" fill-rule="evenodd">
        <path d="M11.945 7.963a3.543 3.543 0 0 0-3.54 3.54 3.543 3.543 0 0 0 3.54 3.538 3.543 3.543 0 0 0 3.539-3.539 3.543 3.543 0 0 0-3.54-3.539zm0 5.309c-.976 0-1.77-.794-1.77-1.77 0-.975.794-1.77 1.77-1.77.975 0 1.77.795 1.77 1.77 0 .976-.795 1.77-1.77 1.77z"/>
        <circle cx="11.945" cy="11.502" r="1"/>
        <path d="M11.945 6.194a5.315 5.315 0 0 0-5.31 5.308 5.315 5.315 0 0 0 5.31 5.31 5.315 5.315 0 0 0 5.308-5.31 5.315 5.315 0 0 0-5.308-5.308zm0 9.732a4.429 4.429 0 0 1-4.424-4.424 4.429 4.429 0 0 1 4.424-4.424 4.429 4.429 0 0 1 4.424 4.424 4.429 4.429 0 0 1-4.424 4.424z"/>
        <path d="M21.68 4.866h-4.692a.442.442 0 0 1-.428-.328L15.586.885H8.303l-.974 3.653a.442.442 0 0 1-.428.328H2.21c-.73 0-1.324.595-1.324 1.326v11.063c0 .731.594 1.326 1.324 1.326H21.68c.73 0 1.325-.595 1.325-1.326V6.192c0-.731-.595-1.326-1.325-1.326zM9.29 1.77h5.31v.884H9.29V1.77zm0 1.327h5.31v.885H9.29v-.885zm2.655 14.599a6.2 6.2 0 0 1-6.194-6.194 6.2 6.2 0 0 1 6.194-6.193 6.2 6.2 0 0 1 6.193 6.193 6.2 6.2 0 0 1-6.193 6.194z"/>
        <path fill="#ED1C26" fill-rule="nonzero" d="M21.68 3.982h-4.352L16.354.328A.442.442 0 0 0 15.926 0H7.963c-.2 0-.376.135-.427.328l-.974 3.654H2.209C.991 3.982 0 4.973 0 6.192v11.063c0 1.219.991 2.21 2.21 2.21h19.47c1.218 0 2.21-.991 2.21-2.21V6.192c0-1.219-.992-2.21-2.21-2.21zm1.325 13.273c0 .731-.595 1.326-1.325 1.326H2.21c-.73 0-1.325-.595-1.325-1.326V6.192c0-.731.594-1.326 1.324-1.326h4.692c.2 0 .376-.134.428-.328L8.303.885h7.283l.974 3.653a.442.442 0 0 0 .428.328h4.692c.73 0 1.325.595 1.325 1.326v11.063z"/>
        <path fill="#ED1C26" fill-rule="nonzero" d="M9.29 1.77h5.309v1H9.29zM9.29 3.097h5.309v1H9.29zM11.945 5.309a6.2 6.2 0 0 0-6.194 6.193 6.2 6.2 0 0 0 6.194 6.194 6.2 6.2 0 0 0 6.193-6.194 6.2 6.2 0 0 0-6.193-6.193zm0 11.502a5.315 5.315 0 0 1-5.31-5.309 5.315 5.315 0 0 1 5.31-5.308 5.315 5.315 0 0 1 5.308 5.308 5.315 5.315 0 0 1-5.308 5.31z"/>
        <path fill="#ED1C26" fill-rule="nonzero" d="M11.945 7.078a4.429 4.429 0 0 0-4.424 4.424 4.429 4.429 0 0 0 4.424 4.424 4.429 4.429 0 0 0 4.424-4.424 4.429 4.429 0 0 0-4.424-4.424zm0 7.963a3.543 3.543 0 0 1-3.54-3.539 3.543 3.543 0 0 1 3.54-3.539 3.543 3.543 0 0 1 3.539 3.54 3.543 3.543 0 0 1-3.54 3.538z"/>
        <path fill="#ED1C26" fill-rule="nonzero" d="M11.945 9.733c-.976 0-1.77.794-1.77 1.77 0 .975.794 1.769 1.77 1.769.975 0 1.77-.794 1.77-1.77 0-.975-.795-1.77-1.77-1.77zm0 2.654a.886.886 0 0 1 0-1.77.886.886 0 0 1 0 1.77z"/>
    </g>
</svg>
