<?xml version="1.0" encoding="UTF-8"?>
<svg width="261px" height="75px" viewBox="0 0 261 75" version="1.1" xmlns="http://www.w3.org/2000/svg" xmlns:xlink="http://www.w3.org/1999/xlink">
    <g id="Page-1" stroke="none" stroke-width="1" fill="none" fill-rule="evenodd">
        <path d="M244,37 C253.388841,37 261,45.5065898 261,56 C261,66.4934102 253.388841,75 244,75 C234.611159,75 227,66.4934102 227,56 C227,45.5065898 234.611159,37 244,37 Z M248.609858,1.77839593 L201.56035,74.5907754 L195.429055,74.5907754 L241.499894,1.77839593 L248.609858,1.77839593 Z M142.25,2 C152.50634,2 161.77341,5.82852174 168.344986,12.7801739 C174.571072,19.3666087 178,28.3233043 178,38 C178,47.6766957 174.571072,56.6333913 168.344986,63.2198261 C161.77341,70.1714783 152.50634,74 142.25,74 C114.139887,74 101.965057,41.7546957 101.222965,39.7115652 C100.888367,38.8517391 90.399373,12.4347826 70.75,12.4347826 C56.508373,12.4347826 46.171875,23.1865217 46.171875,38 C46.171875,52.8134783 56.508373,63.5652174 70.75,63.5652174 C80.9881855,63.5652174 88.6051699,56.7484348 93.6615605,49.936087 C95.0988223,52.805913 97.0569727,56.2906087 99.5857266,59.9258261 C92.9725352,67.366087 83.5010195,74 70.75,74 C60.4936602,74 51.2265898,70.1714783 44.6550137,63.2198261 C38.4289277,56.6333913 35,47.6766957 35,38 C35,28.3233043 38.4289277,19.3666087 44.6550137,12.7801739 C51.2265898,5.82852174 60.4936602,2 70.75,2 C98.5461836,2 111.24274,34.8695652 111.769494,36.2688696 L111.769494,36.2688696 L111.797145,36.3437391 C111.892943,36.6085217 121.890654,63.5652174 142.25,63.5652174 C156.491627,63.5652174 166.828125,52.8134783 166.828125,38 C166.828125,23.1865217 156.491627,12.4347826 142.25,12.4347826 C132.159563,12.4347826 124.485881,19.4002609 119.361621,26.2945217 C117.921566,23.4703478 115.946658,19.9898261 113.41176,16.3538261 C120.082766,8.80478261 129.602879,2 142.25,2 Z M23.5459773,2.49227807 L23.5459773,73.589247 L12.2710611,73.589247 L12.9288388,15.7130161 L5.9808646,21.2576866 L0.138641212,14.7669051 L12.9288388,2.49227807 L23.5459773,2.49227807 Z M244,43 C237.924868,43 233,48.8202983 233,56 C233,63.1797017 237.924868,69 244,69 C250.075132,69 255,63.1797017 255,56 C255,48.8202983 250.075132,43 244,43 Z M201,0 C210.388841,0 218,8.50658975 218,19 C218,29.4934102 210.388841,38 201,38 C191.611159,38 184,29.4934102 184,19 C184,8.50658975 191.611159,0 201,0 Z M201,6 C194.924868,6 190,11.8202983 190,19 C190,26.1797017 194.924868,32 201,32 C207.075132,32 212,26.1797017 212,19 C212,11.8202983 207.075132,6 201,6 Z" id="Oval-2" fill="#FFFFFF"></path>
    </g>
</svg>